# xmcd
#
# Track frame offsets: 
#        150
#        21948
#        41527
#        70590
#        94003
#        115024
#        135536
#        145878
#        171702
#
# Disc length: 2452 seconds
#
# Revision: 0
# Processed by: cddbd v1.5.2PL0 Copyright (c) Steve Scherf et al.
# Submitted via: ExactAudioCopyFreeDBPlugin 1.0
#
DISCID=79099209
DTITLE=Cloudy Days - Cloudy Days
DYEAR=1998
DGENRE=Blues
TTITLE0=Buenos Noches Senorita
TTITLE1=My Heads In Mississippi
TTITLE2=Woman Loving A Woman
TTITLE3=Bow Wow
TTITLE4=She's Going To Jacksonville
TTITLE5=One Eyed Woman
TTITLE6=Cheat On Me
TTITLE7=Da Phunk
TTITLE8=Cloudy Days
EXTD=
EXTT0=
EXTT1=
EXTT2=
EXTT3=
EXTT4=
EXTT5=
EXTT6=
EXTT7=
EXTT8=
PLAYORDER=
